<?xml version="1.0" encoding="utf-8"?>
<!-- Generator: Adobe Illustrator 17.0.0, SVG Export Plug-In . SVG Version: 6.00 Build 0)  -->
<!DOCTYPE svg PUBLIC "-//W3C//DTD SVG 1.1//EN" "http://www.w3.org/Graphics/SVG/1.1/DTD/svg11.dtd">
<svg version="1.1" id="Layer_1" xmlns="http://www.w3.org/2000/svg" xmlns:xlink="http://www.w3.org/1999/xlink" x="0px" y="0px"
	 width="29.994px" height="27.983px" viewBox="0 0 29.994 27.983" enable-background="new 0 0 29.994 27.983" xml:space="preserve">
<path fill="#F8981D" d="M15.998,26.039V12.19h-1v13.85l-3.603-3.661l-0.707,0.718l4.811,4.887l4.81-4.887l-0.707-0.718
	L15.998,26.039z"/>
<path fill="#F8981D" d="M24.512,8.115c0.002-0.081,0.012-0.161,0.012-0.242c0-4.347-3.469-7.872-7.75-7.872
	c-3.084,0-5.74,1.835-6.986,4.484C9.248,4.208,8.641,4.049,7.994,4.049c-1.979,0-3.619,1.462-3.94,3.381
	C1.697,8.251,0,10.517,0,13.192c0,3.365,2.684,6.091,5.994,6.095h6.004v-1.016H5.996C3.242,18.267,1,15.99,1,13.192
	c0-2.167,1.359-4.097,3.379-4.802l0.563-0.194l0.1-0.595c0.246-1.47,1.488-2.536,2.953-2.536c0.469,0,0.92,0.109,1.344,0.325
	l0.91,0.466l0.441-0.934c1.117-2.373,3.506-3.907,6.084-3.907c3.722,0,6.75,3.076,6.75,6.857c0,0.022-0.002,0.044-0.004,0.064
	c-0.004,0.051-0.006,0.101-0.008,0.153l-0.025,1.038L24.51,9.13c2.472,0.006,4.484,2.057,4.484,4.569
	c0,2.506-2.008,4.557-4.476,4.569l-0.219,0.002h-5.301v1.016h5.525v-0.002c3.025-0.016,5.47-2.51,5.47-5.585
	C29.994,10.621,27.543,8.123,24.512,8.115z"/>
</svg>
