<?xml version="1.0" encoding="utf-8"?>
<!-- Generator: Adobe Illustrator 17.0.0, SVG Export Plug-In . SVG Version: 6.00 Build 0)  -->
<!DOCTYPE svg PUBLIC "-//W3C//DTD SVG 1.1//EN" "http://www.w3.org/Graphics/SVG/1.1/DTD/svg11.dtd">
<svg version="1.1" id="Layer_1" xmlns="http://www.w3.org/2000/svg" xmlns:xlink="http://www.w3.org/1999/xlink" x="0px" y="0px"
	 width="25px" height="24px" viewBox="0 0 25 24" enable-background="new 0 0 25 24" xml:space="preserve">
<path fill="#FFFFFF" d="M0,0v17v1v6h25v-6v-1V0H0z M24,1v14.94l-5.469-5.626l-3.505,3.004L7.991,6.284L1,13.629V1H24z M1,15.079
	l7.009-7.363l6.965,6.966l3.495-2.996L23.636,17H1V15.079z M24,23H1v-5h23V23z"/>
<path fill="#FFFFFF" d="M18.5,8C19.881,8,21,6.881,21,5.5S19.881,3,18.5,3S16,4.119,16,5.5S17.119,8,18.5,8z M18.5,4
	C19.327,4,20,4.673,20,5.5S19.327,7,18.5,7S17,6.327,17,5.5S17.673,4,18.5,4z"/>
</svg>
