<?xml version="1.0" encoding="utf-8"?>
<!-- Generator: Adobe Illustrator 17.0.0, SVG Export Plug-In . SVG Version: 6.00 Build 0)  -->
<!DOCTYPE svg PUBLIC "-//W3C//DTD SVG 1.1//EN" "http://www.w3.org/Graphics/SVG/1.1/DTD/svg11.dtd">
<svg version="1.1" id="Layer_1" xmlns="http://www.w3.org/2000/svg" xmlns:xlink="http://www.w3.org/1999/xlink" x="0px" y="0px"
	 width="24px" height="24px" viewBox="0 0 24 24" enable-background="new 0 0 24 24" xml:space="preserve">
<path fill="#FFFFFF" d="M7.5,1V0H0v7.5h1V1.707l7.117,7.116l0.707-0.707L1.707,1H7.5z"/>
<path fill="#FFFFFF" d="M16.5,0v1h5.793l-7.117,7.116l0.707,0.707L23,1.707V7.5h1V0H16.5z"/>
<path fill="#FFFFFF" d="M8.117,15.177L1,22.293V16.5H0V24h7.5v-1H1.707l7.117-7.116L8.117,15.177z"/>
<path fill="#FFFFFF" d="M23,22.293l-7.117-7.116l-0.707,0.707L22.293,23H16.5v1H24v-7.5h-1V22.293z"/>
</svg>
