<?xml version="1.0" encoding="utf-8"?>
<!-- Generator: Adobe Illustrator 17.0.0, SVG Export Plug-In . SVG Version: 6.00 Build 0)  -->
<!DOCTYPE svg PUBLIC "-//W3C//DTD SVG 1.1//EN" "http://www.w3.org/Graphics/SVG/1.1/DTD/svg11.dtd">
<svg version="1.1" id="Layer_1" xmlns="http://www.w3.org/2000/svg" xmlns:xlink="http://www.w3.org/1999/xlink" x="0px" y="0px"
	 width="149px" height="60px" viewBox="0 0 149 60" enable-background="new 0 0 149 60" xml:space="preserve">
<path fill-rule="evenodd" clip-rule="evenodd" fill="#1F2229" d="M149,0v60H0V0h30v27h91V0H149z"/>
<path fill-rule="evenodd" clip-rule="evenodd" fill="#282B35" d="M0,0h1v27h147V0h1v28H0V0z"/>
<g>
	<path fill-rule="evenodd" clip-rule="evenodd" fill="#282B35" d="M18,0C12.477,0,8,4.477,8,10c0,5.523,4.477,10,10,10
		s10-4.477,10-10C28,4.477,23.523,0,18,0z M18,19c-4.971,0-9-4.029-9-9c0-4.971,4.029-9,9-9s9,4.029,9,9C27,14.971,22.971,19,18,19z
		"/>
	<path fill-rule="evenodd" clip-rule="evenodd" fill="#282B35" d="M20,8V4h-4v4h-4v4h4v4h4v-4h4V8H20z M23,11h-4v4h-2v-4h-4V9h4V5h2
		v4h4V11z"/>
</g>
<g>
	<path fill-rule="evenodd" clip-rule="evenodd" fill="#282B35" d="M131,0c-5.523,0-10,4.477-10,10c0,5.523,4.477,10,10,10
		s10-4.477,10-10C141,4.477,136.523,0,131,0z M131,19c-4.971,0-9-4.029-9-9c0-4.971,4.029-9,9-9s9,4.029,9,9
		C140,14.971,135.971,19,131,19z"/>
	<path fill-rule="evenodd" clip-rule="evenodd" fill="#282B35" d="M133,8V4h-4v4h-4v4h4v4h4v-4h4V8H133z M136,11h-4v4h-2v-4h-4V9h4
		V5h2v4h4V11z"/>
</g>
</svg>
