<?xml version="1.0" encoding="utf-8"?>
<!-- Generator: Adobe Illustrator 17.0.0, SVG Export Plug-In . SVG Version: 6.00 Build 0)  -->
<!DOCTYPE svg PUBLIC "-//W3C//DTD SVG 1.1//EN" "http://www.w3.org/Graphics/SVG/1.1/DTD/svg11.dtd">
<svg version="1.1" id="Layer_1" xmlns="http://www.w3.org/2000/svg" xmlns:xlink="http://www.w3.org/1999/xlink" x="0px" y="0px"
	 width="149px" height="91px" viewBox="0 0 149 91" enable-background="new 0 0 149 91" xml:space="preserve">
<g>
	<g>
		<path fill-rule="evenodd" clip-rule="evenodd" fill="#282B35" d="M36,83h24v-1H36V83z M36,65h24v-1H36V65z M36,56h24v-1H36V56z
			 M36,47h32v-1H36V47z M60,37H36v1h24V37z M60,28H36v1h24V28z M60,19H36v1h24V19z M60,10H36v1h24V10z M36,0v2h48V0H36z M36,74h24
			v-1H36V74z"/>
	</g>
</g>
<g>
	<g>
		<path fill-rule="evenodd" clip-rule="evenodd" fill="#282B35" d="M148,0v91h1V0H148z M0,91h1V0H0V91z"/>
	</g>
</g>
</svg>
