<?xml version="1.0" encoding="utf-8"?>
<!-- Generator: Adobe Illustrator 17.0.0, SVG Export Plug-In . SVG Version: 6.00 Build 0)  -->
<!DOCTYPE svg PUBLIC "-//W3C//DTD SVG 1.1//EN" "http://www.w3.org/Graphics/SVG/1.1/DTD/svg11.dtd">
<svg version="1.1" id="Layer_1" xmlns="http://www.w3.org/2000/svg" xmlns:xlink="http://www.w3.org/1999/xlink" x="0px" y="0px"
	 width="149px" height="60px" viewBox="0 0 149 60" enable-background="new 0 0 149 60" xml:space="preserve">
<path fill-rule="evenodd" clip-rule="evenodd" fill="#1F2229" d="M149,60V0H0v60h28V33h93v27H149z"/>
<path fill-rule="evenodd" clip-rule="evenodd" fill="#282B35" d="M0,60h1V33h147v27h1V32H0V60z"/>
<g>
	<path fill-rule="evenodd" clip-rule="evenodd" fill="#282B35" d="M18,40c-5.523,0-10,4.477-10,10c0,5.523,4.477,10,10,10
		s10-4.477,10-10C28,44.477,23.523,40,18,40z M18,59c-4.971,0-9-4.029-9-9c0-4.971,4.029-9,9-9s9,4.029,9,9
		C27,54.971,22.971,59,18,59z"/>
	<path fill-rule="evenodd" clip-rule="evenodd" fill="#282B35" d="M20,48v-4h-4v4h-4v4h4v4h4v-4h4v-4H20z M23,51h-4v4h-2v-4h-4v-2h4
		v-4h2v4h4V51z"/>
</g>
<g>
	<path fill-rule="evenodd" clip-rule="evenodd" fill="#282B35" d="M131,40c-5.523,0-10,4.477-10,10c0,5.523,4.477,10,10,10
		s10-4.477,10-10C141,44.477,136.523,40,131,40z M131,59c-4.971,0-9-4.029-9-9c0-4.971,4.029-9,9-9s9,4.029,9,9
		C140,54.971,135.971,59,131,59z"/>
	<path fill-rule="evenodd" clip-rule="evenodd" fill="#282B35" d="M133,48v-4h-4v4h-4v4h4v4h4v-4h4v-4H133z M136,51h-4v4h-2v-4h-4
		v-2h4v-4h2v4h4V51z"/>
</g>
</svg>
