<?xml version="1.0" encoding="utf-8"?>
<!-- Generator: Adobe Illustrator 17.0.0, SVG Export Plug-In . SVG Version: 6.00 Build 0)  -->
<!DOCTYPE svg PUBLIC "-//W3C//DTD SVG 1.1//EN" "http://www.w3.org/Graphics/SVG/1.1/DTD/svg11.dtd">
<svg version="1.1" id="Layer_1" xmlns="http://www.w3.org/2000/svg" xmlns:xlink="http://www.w3.org/1999/xlink" x="0px" y="0px"
	 width="149px" height="91px" viewBox="0 0 149 91" enable-background="new 0 0 149 91" xml:space="preserve">
<g>
	<path fill-rule="evenodd" clip-rule="evenodd" fill="#282B35" d="M89,83h24v-1H89V83z M89,65h24v-1H89V65z M89,56h24v-1H89V56z
		 M81,47h32v-1H81V47z M89,38h24v-1H89V38z M89,29h24v-1H89V29z M89,20h24v-1H89V20z M89,11h24v-1H89V11z M65,0v2h48V0H65z M89,74
		h24v-1H89V74z"/>
</g>
<g>
	<g>
		<path fill-rule="evenodd" clip-rule="evenodd" fill="#282B35" d="M148,0v91h1V0H148z M0,91h1V0H0V91z"/>
	</g>
</g>
</svg>
