<svg xmlns="http://www.w3.org/2000/svg" xmlns:xlink="http://www.w3.org/1999/xlink" width="1074" height="91" viewBox="0 0 1074 91"><svg width="29.994" height="27.983" viewBox="0 0 29.994 27.983" id="download_cloud" x="0"><path fill="#F8981D" d="M15.998 26.039v-13.849h-1v13.85l-3.603-3.661-.707.718 4.811 4.887 4.81-4.887-.707-.718-3.604 3.66zm8.514-17.924l.012-.242c0-4.347-3.469-7.872-7.75-7.872-3.084 0-5.74 1.835-6.986 4.484-.54-.277-1.147-.436-1.794-.436-1.979 0-3.619 1.462-3.94 3.381-2.357.821-4.054 3.087-4.054 5.762 0 3.365 2.684 6.091 5.994 6.095h6.004v-1.016h-6.002c-2.754-.004-4.996-2.281-4.996-5.079 0-2.167 1.359-4.097 3.379-4.802l.563-.194.1-.595c.246-1.47 1.488-2.536 2.953-2.536.469 0 .92.109 1.344.325l.91.466.441-.934c1.117-2.373 3.506-3.907 6.084-3.907 3.722 0 6.75 3.076 6.75 6.857l-.004.064-.008.153-.025 1.038 1.023.003c2.472.006 4.484 2.057 4.484 4.569 0 2.506-2.008 4.557-4.476 4.569l-.219.002h-5.301v1.016h5.525v-.002c3.025-.016 5.47-2.51 5.47-5.585.001-3.078-2.45-5.576-5.481-5.584z"/></svg>
<svg width="25" height="24" viewBox="0 0 25 24" id="gallery_thumb" x="30"><path fill="#F8981D" d="M0 0v24h25v-24h-25zm24 1v14.94l-5.469-5.626-3.505 3.004-7.035-7.034-6.991 7.345v-12.629h23zm-23 14.079l7.009-7.363 6.965 6.966 3.495-2.996 5.167 5.314h-22.636v-1.921zm23 7.921h-23v-5h23v5zm-5.5-15c1.381 0 2.5-1.119 2.5-2.5s-1.119-2.5-2.5-2.5-2.5 1.119-2.5 2.5 1.119 2.5 2.5 2.5zm0-4c.827 0 1.5.673 1.5 1.5s-.673 1.5-1.5 1.5-1.5-.673-1.5-1.5.673-1.5 1.5-1.5z"/></svg>
<svg width="24" height="24" viewBox="0 0 24 24" id="lightbox_icon" x="55"><path fill="#fff" d="M7.5 1v-1h-7.5v7.5h1v-5.793l7.117 7.116.707-.707-7.117-7.116h5.793zm9-1v1h5.793l-7.117 7.116.707.707 7.117-7.116v5.793h1v-7.5h-7.5zm-8.383 15.177l-7.117 7.116v-5.793h-1v7.5h7.5v-1h-5.793l7.117-7.116-.707-.707zm14.883 7.116l-7.117-7.116-.707.707 7.117 7.116h-5.793v1h7.5v-7.5h-1v5.793z"/></svg>
<svg width="149" height="91" viewBox="0 0 149 91" id="lines_left" x="79"><path fill-rule="evenodd" clip-rule="evenodd" fill="#282B35" d="M89 83h24v-1h-24v1zm0-18h24v-1h-24v1zm0-9h24v-1h-24v1zm-8-9h32v-1h-32v1zm8-9h24v-1h-24v1zm0-9h24v-1h-24v1zm0-9h24v-1h-24v1zm0-9h24v-1h-24v1zm-24-11v2h48v-2h-48zm24 74h24v-1h-24v1zm59-74v91h1v-91h-1zm-148 91h1v-91h-1v91z"/></svg>
<svg width="149" height="60" viewBox="0 0 149 60" id="lines_left_bottom" x="228"><path fill-rule="evenodd" clip-rule="evenodd" fill="#1F2229" d="M0 0v60h149v-60h-28v27h-93v-27h-28z"/><path fill-rule="evenodd" clip-rule="evenodd" fill="#282B35" d="M0 0h1v27h147v-27h1v28h-149v-28zM18 0c-5.523 0-10 4.477-10 10s4.477 10 10 10 10-4.477 10-10-4.477-10-10-10zm0 19c-4.971 0-9-4.029-9-9s4.029-9 9-9 9 4.029 9 9-4.029 9-9 9zm2-11v-4h-4v4h-4v4h4v4h4v-4h4v-4h-4zm3 3h-4v4h-2v-4h-4v-2h4v-4h2v4h4v2zM131 0c-5.523 0-10 4.477-10 10s4.477 10 10 10 10-4.477 10-10-4.477-10-10-10zm0 19c-4.971 0-9-4.029-9-9s4.029-9 9-9 9 4.029 9 9-4.029 9-9 9zm2-11v-4h-4v4h-4v4h4v4h4v-4h4v-4h-4zm3 3h-4v4h-2v-4h-4v-2h4v-4h2v4h4v2z"/></svg>
<svg width="43" height="24" viewBox="0 0 43 24" id="lines_left_indicator" x="377"><path fill-rule="evenodd" clip-rule="evenodd" fill="#282B35" d="M0 0h35v6l8 6-8 6v6h-35v-24z"/><path fill-rule="evenodd" clip-rule="evenodd" fill="#424858" d="M35 6v-6h-35v24h35v-6l8-6-8-6zm-1 12v5h-33v-22h33v5l8 6-8 6z"/></svg>
<svg width="149" height="60" viewBox="0 0 149 60" id="lines_left_top" x="420"><path fill-rule="evenodd" clip-rule="evenodd" fill="#1F2229" d="M0 60v-60h149v60h-28v-27h-93v27h-28z"/><path fill-rule="evenodd" clip-rule="evenodd" fill="#282B35" d="M0 60h1v-27h147v27h1v-28h-149v28zM18 40c-5.523 0-10 4.477-10 10s4.477 10 10 10 10-4.477 10-10-4.477-10-10-10zm0 19c-4.971 0-9-4.029-9-9s4.029-9 9-9 9 4.029 9 9-4.029 9-9 9zm2-11v-4h-4v4h-4v4h4v4h4v-4h4v-4h-4zm3 3h-4v4h-2v-4h-4v-2h4v-4h2v4h4v2zM131 40c-5.523 0-10 4.477-10 10s4.477 10 10 10 10-4.477 10-10-4.477-10-10-10zm0 19c-4.971 0-9-4.029-9-9s4.029-9 9-9 9 4.029 9 9-4.029 9-9 9zm2-11v-4h-4v4h-4v4h4v4h4v-4h4v-4h-4zm3 3h-4v4h-2v-4h-4v-2h4v-4h2v4h4v2z"/></svg>
<svg width="149" height="91" viewBox="0 0 149 91" id="lines_right" x="569"><path fill-rule="evenodd" clip-rule="evenodd" fill="#282B35" d="M36 83h24v-1h-24v1zm0-18h24v-1h-24v1zm0-9h24v-1h-24v1zm0-9h32v-1h-32v1zm24-10h-24v1h24v-1zm0-9h-24v1h24v-1zm0-9h-24v1h24v-1zm0-9h-24v1h24v-1zm-24-10v2h48v-2h-48zm0 74h24v-1h-24v1zm112-74v91h1v-91h-1zm-148 91h1v-91h-1v91z"/></svg>
<svg width="149" height="60" viewBox="0 0 149 60" id="lines_right_bottom" x="718"><path fill-rule="evenodd" clip-rule="evenodd" fill="#1F2229" d="M149 0v60h-149v-60h30v27h91v-27h28z"/><path fill-rule="evenodd" clip-rule="evenodd" fill="#282B35" d="M0 0h1v27h147v-27h1v28h-149v-28zM18 0c-5.523 0-10 4.477-10 10s4.477 10 10 10 10-4.477 10-10-4.477-10-10-10zm0 19c-4.971 0-9-4.029-9-9s4.029-9 9-9 9 4.029 9 9-4.029 9-9 9zm2-11v-4h-4v4h-4v4h4v4h4v-4h4v-4h-4zm3 3h-4v4h-2v-4h-4v-2h4v-4h2v4h4v2zM131 0c-5.523 0-10 4.477-10 10s4.477 10 10 10 10-4.477 10-10-4.477-10-10-10zm0 19c-4.971 0-9-4.029-9-9s4.029-9 9-9 9 4.029 9 9-4.029 9-9 9zm2-11v-4h-4v4h-4v4h4v4h4v-4h4v-4h-4zm3 3h-4v4h-2v-4h-4v-2h4v-4h2v4h4v2z"/></svg>
<svg width="58" height="24" viewBox="0 0 58 24" id="lines_right_indicator" x="867"><path fill-rule="evenodd" clip-rule="evenodd" fill="#282B35" d="M58 0h-50v6l-8 6 8 6v6h50v-24z"/><path fill-rule="evenodd" clip-rule="evenodd" fill="#424858" d="M8 0v6l-8 6 8 6v6h50v-24h-50zm49 23h-48v-5l-8-6 8-6v-5h48v22z"/></svg>
<svg width="149" height="60" viewBox="0 0 149 60" id="lines_right_top" x="925"><path fill-rule="evenodd" clip-rule="evenodd" fill="#1F2229" d="M149 60v-60h-149v60h28v-27h93v27h28z"/><path fill-rule="evenodd" clip-rule="evenodd" fill="#282B35" d="M0 60h1v-27h147v27h1v-28h-149v28zM18 40c-5.523 0-10 4.477-10 10s4.477 10 10 10 10-4.477 10-10-4.477-10-10-10zm0 19c-4.971 0-9-4.029-9-9s4.029-9 9-9 9 4.029 9 9-4.029 9-9 9zm2-11v-4h-4v4h-4v4h4v4h4v-4h4v-4h-4zm3 3h-4v4h-2v-4h-4v-2h4v-4h2v4h4v2zM131 40c-5.523 0-10 4.477-10 10s4.477 10 10 10 10-4.477 10-10-4.477-10-10-10zm0 19c-4.971 0-9-4.029-9-9s4.029-9 9-9 9 4.029 9 9-4.029 9-9 9zm2-11v-4h-4v4h-4v4h4v4h4v-4h4v-4h-4zm3 3h-4v4h-2v-4h-4v-2h4v-4h2v4h4v2z"/></svg>
</svg>