<svg xmlns="http://www.w3.org/2000/svg" width="200" height="100" viewBox="0 0 200 100"><path fill-rule="evenodd" clip-rule="evenodd" fill="#D5D7DC" d="M23 23l21 21v-21h-21zM44 0h-44l19 19h25v-19zM177 23l-21 21v-21h21zM156 0h44l-19 19h-25v-19z"/><path fill-rule="evenodd" clip-rule="evenodd" fill="#424858" d="M152 0v48l-32 32v-80h32zM84 0v84l16 16 16-16v-84h-32zM48 0v48l32 32v-80h-32z"/><path fill="#F0F0F0" d="M69.502 19.49h-10.986v2.162h4.289v25.348h2.443v-25.348h4.254v-2.162zM105.572 35.697c0-.797-.305-1.383-.914-1.758l-2.074-1.336 1.934-1.16c.656-.492.984-1.101.984-1.828v-8.174c0-.574-.182-1.043-.545-1.406-.363-.363-.832-.545-1.406-.545h-9v27.51h9.07c.574 0 1.043-.181 1.406-.545.363-.363.545-.832.545-1.406v-9.352zm-4.974-4.113h-3.604v-9.932h6.047v8.279l-2.443 1.653zm-3.604 13.254v-11.127h3.639l2.479 1.617v9.51h-6.118zM141.581 33.219h-5.396v2.109h2.936v9.51h-6.223v-23.186h6.223v6.188h2.461v-6.398c0-.574-.182-1.043-.545-1.406-.363-.363-.832-.545-1.406-.545h-7.225c-.574 0-1.043.182-1.406.545-.363.363-.545.832-.545 1.406v23.607c0 .574.182 1.043.545 1.406.363.363.832.545 1.406.545h7.225c.574 0 1.043-.181 1.406-.545.363-.363.545-.832.545-1.406v-11.83z"/></svg>