<?xml version="1.0" encoding="utf-8"?>
<!-- Generator: Adobe Illustrator 17.0.0, SVG Export Plug-In . SVG Version: 6.00 Build 0)  -->
<!DOCTYPE svg PUBLIC "-//W3C//DTD SVG 1.1//EN" "http://www.w3.org/Graphics/SVG/1.1/DTD/svg11.dtd">
<svg version="1.1" id="Layer_1" xmlns="http://www.w3.org/2000/svg" xmlns:xlink="http://www.w3.org/1999/xlink" x="0px" y="0px"
	 width="200px" height="100px" viewBox="0 0 200 100" enable-background="new 0 0 200 100" xml:space="preserve">
<path fill-rule="evenodd" clip-rule="evenodd" fill="#D5D7DC" d="M23,23l21,21V23H23z"/>
<path fill-rule="evenodd" clip-rule="evenodd" fill="#D5D7DC" d="M44,0H0l19,19h25V0z"/>
<path fill-rule="evenodd" clip-rule="evenodd" fill="#D5D7DC" d="M177,23l-21,21V23H177z"/>
<path fill-rule="evenodd" clip-rule="evenodd" fill="#D5D7DC" d="M156,0h44l-19,19h-25V0z"/>
<path fill-rule="evenodd" clip-rule="evenodd" fill="#424858" d="M152,0v48l-32,32V0H152z"/>
<path fill-rule="evenodd" clip-rule="evenodd" fill="#424858" d="M84,0v84l16,16l16-16V0H84z"/>
<path fill-rule="evenodd" clip-rule="evenodd" fill="#424858" d="M48,0v48l32,32V0H48z"/>
<path fill="#F0F0F0" d="M69.502,19.49H58.516v2.162h4.289V47h2.443V21.652h4.254V19.49z"/>
<path fill="#F0F0F0" d="M105.572,35.697c0-0.797-0.305-1.383-0.914-1.758l-2.074-1.336c0.644-0.387,1.289-0.773,1.934-1.16
	c0.656-0.492,0.984-1.101,0.984-1.828v-8.174c0-0.574-0.182-1.043-0.545-1.406c-0.363-0.363-0.832-0.545-1.406-0.545h-9V47h9.07
	c0.574,0,1.043-0.181,1.406-0.545c0.363-0.363,0.545-0.832,0.545-1.406V35.697z M100.598,31.584h-3.604v-9.932h6.047v8.279
	L100.598,31.584z M96.994,44.838V33.711h3.639l2.479,1.617v9.51H96.994z"/>
<path fill="#F0F0F0" d="M141.581,33.219h-5.396v2.109h2.936v9.51h-6.223V21.652h6.223v6.188h2.461v-6.398
	c0-0.574-0.182-1.043-0.545-1.406c-0.363-0.363-0.832-0.545-1.406-0.545h-7.225c-0.574,0-1.043,0.182-1.406,0.545
	c-0.363,0.363-0.545,0.832-0.545,1.406v23.607c0,0.574,0.182,1.043,0.545,1.406c0.363,0.363,0.832,0.545,1.406,0.545h7.225
	c0.574,0,1.043-0.181,1.406-0.545c0.363-0.363,0.545-0.832,0.545-1.406V33.219z"/>
</svg>
